<?xml version="1.0" encoding="utf-8"?>
<!-- Generator: Adobe Illustrator 22.1.0, SVG Export Plug-In . SVG Version: 6.00 Build 0)  -->
<svg version="1.0" id="Layer_1" xmlns="http://www.w3.org/2000/svg" xmlns:xlink="http://www.w3.org/1999/xlink" x="0px" y="0px"
	 viewBox="0 0 128 50" style="enable-background:new 0 0 128 50; fill: #fff;" xml:space="preserve">
<g transform="translate(5 6)">
	<path d="M8.8-5.6c-0.4,0-0.6,0.2-0.6,0.5l0,0v7.7h-8.5v-7.7c0-0.4-0.2-0.6-0.5-0.6h-3.5C-4.6-5.6-5-5.4-5-5.2v20.3
		c0,0.4,0.4,0.5,0.6,0.5h3.5c0.4,0,0.5-0.2,0.5-0.5V7H8v8.1c0,0.4,0.2,0.5,0.6,0.5h3.5c0.2,0,0.6-0.2,0.6-0.5V-5.2
		c0-0.4-0.2-0.6-0.6-0.6H8.8V-5.6z M19.9-5.6c-0.4,0-0.6,0.2-0.6,0.6l0,0v20.3c0,0.4,0.2,0.5,0.6,0.5h12.3c0.4,0,0.6-0.2,0.6-0.5
		v-3.4c0-0.4-0.2-0.6-0.6-0.6l0,0h-8.3V7h6.9c0.2,0,0.5-0.1,0.5-0.5V3.2c0-0.4-0.2-0.6-0.5-0.6h-6.9v-3.7h8.3c0.4,0,0.6-0.2,0.6-0.6
		v-3.4c0-0.4-0.2-0.6-0.6-0.6L19.9-5.6L19.9-5.6z M47.3-6h0.2c0.2,0,0.4,0.1,0.5,0.4L56.4,13c-0.2,0.1-0.5,0.2-0.6,0.5
		c-0.6,0.5-1.1,1.3-1.2,2.2v0.1h-0.2c-0.1-0.4-0.5-0.7-0.7-1c-0.4-0.2-0.8-0.5-1.4-0.5l-0.7-1.7h-8.1L42.2,15
		c-0.1,0.4-0.5,0.7-1.1,0.7h-3.3c-0.5,0-0.7-0.4-0.5-0.8l9.3-20.5C46.8-5.8,47.1-6,47.3-6L47.3-6z M47.4,3.4l-2.2,5h4.5L47.4,3.4
		L47.4,3.4L47.4,3.4z M62.4-5.6c-0.2,0-0.5,0.2-0.5,0.6V14h0.2h0.1h0.1c0.8,0,1.6,0.4,1.9,1.1c0.1,0.2,0.1,0.5,0.1,0.7h0.4
		c0.2-1.1,0.7-2.1,1.3-3c0.4-0.6,0.8-1.1,1.4-1.4h-1.2V-1.2h2.9c1.8,0,3.6,0.8,4.6,2.4c0.4-0.1,0.7-0.1,1.1-0.1
		c0.8,0.1,1.6,0.6,1.9,1.3c0.2,0.5,0.4,1,0.2,1.4c-0.1,1.8-0.4,3.7-0.5,5.4c-0.1,1.3-0.2,2.7-0.2,4c2.4-2.1,3.7-5.1,3.7-8.2
		c0-5.9-4.7-10.6-10.5-10.6C69.6-5.6,62.4-5.6,62.4-5.6z M84.6,0.2c0,3.7,3.3,5.8,5.8,6.8c2.1,0.8,3,1.8,3,3.1
		c0,1.1-0.8,1.8-2.1,1.8c-1.9,0-4.1-1.7-4.2-1.7c-0.2-0.1-0.7-0.2-1,0.1L84.7,13c-0.2,0.5-0.1,0.6,0.1,0.8c0.7,0.7,2.8,2.4,6.6,2.4
		c4.3,0,7-3.1,7-6.3c0-4.2-3.7-6-6-7c-2.3-1-3.3-1.8-3.3-3c0-0.8,0.8-1.6,1.9-1.6c1.8,0,4,1.7,4.2,1.8c0.2,0.2,0.8-0.1,1-0.4
		l1.6-2.4c0.1-0.2,0.1-0.7-0.1-1c-0.8-0.7-3.3-2.3-6.4-2.3C86.9-5.9,84.6-2.9,84.6,0.2z M28.3,22.1c-0.4,0-0.6,0.2-0.6,0.6v7.7h-8.5
		v-7.7c0-0.4-0.2-0.6-0.5-0.6h-3.5c-0.2,0-0.6,0.2-0.6,0.6V43c0,0.4,0.4,0.6,0.6,0.6h3.5c0.4,0,0.5-0.4,0.5-0.6v-8.1h8.5V43
		c0,0.4,0.2,0.6,0.6,0.6h3.5c0.2,0,0.6-0.4,0.6-0.6V22.7c0-0.4-0.2-0.6-0.6-0.6H28.3z M50.4,27.8l0.1-0.1l6.9,15.2
		c0.1,0.4-0.1,0.8-0.5,0.8h-3.3c-0.5,0-0.7-0.1-1.1-0.7l-1.1-2.4h-8.2L42.2,43c-0.1,0.4-0.5,0.7-1.1,0.7h-3.3
		c-0.5,0-0.7-0.4-0.5-0.8l6.5-14.6c0.1,0.2,0.4,0.4,0.5,0.6l0,0c0.7,0.6,1.6,1,2.4,1c0.1,0,0.4,0,0.5,0l0,0
		C48.6,29.5,49.6,28.9,50.4,27.8z M47.3,31.2L45,36.3h4.5L47.3,31.2L47.3,31.2z M77.9,22.1l-0.1,0.1c-0.6,0.7-1.3,1.3-2.1,1.6h-0.1
		c-0.2,0.1-0.5,0.1-0.8,0.2v9.5l0,0l-10.1-10c-0.2,0.2-0.5,0.5-0.8,0.6c-0.5,0.2-1.1,0.4-1.8,0.4c-0.1,0-0.2,0-0.5,0v18.6
		c0,0.4,0.2,0.6,0.6,0.6h3.5c0.4,0,0.5-0.4,0.5-0.6V31.7h0.2L78,43.9c0.1,0.1,0.2,0.1,0.4,0.1h0.5c0.2,0,0.5-0.2,0.5-0.5V22.7
		c0-0.4-0.2-0.6-0.5-0.6H77.9z M86.9,22.1h7.2c5.8,0,10.5,4.8,10.5,10.7S100,43.6,94.2,43.6h-7.2c-0.4,0-0.6-0.4-0.6-0.6V22.7
		C86.3,22.4,86.5,22.1,86.9,22.1z M91,26.6V39h2.9c3.4,0,5.8-2.8,5.8-6.3s-2.4-6.3-5.8-6.3H91V26.6z M109,27.9
		c0,3.7,3.3,5.8,5.8,6.8c2.1,0.8,3,1.8,3,3.1c0,1.1-0.8,1.8-2.1,1.8c-1.9,0-4.1-1.7-4.2-1.7c-0.2-0.1-0.7-0.2-1,0.1l-1.4,2.7
		c-0.2,0.5-0.1,0.6,0.1,0.8c0.7,0.7,2.8,2.4,6.6,2.4c4.3,0,7-3.1,7-6.4c0-4.1-3.7-6-6-7c-2.3-1-3.3-1.8-3.3-3c0-0.8,0.8-1.6,1.9-1.6
		c1.8,0,4,1.7,4.2,1.8c0.2,0.2,0.8-0.1,1-0.4l1.6-2.4c0.1-0.2,0.1-0.7-0.1-1c-0.8-0.7-3.3-2.3-6.4-2.3C111.3,21.8,109,24.9,109,27.9
		L109,27.9z"/>
	<path d="M46.4,15.6c0.6-0.6,1.4-0.8,2.4-0.8c0.1,0,0.1,0,0.2,0c0.4,0,0.7,0.1,1.1,0.4c0.2,0.2,0.5,0.5,0.7,0.8
		c0.2-0.2,0.5-0.5,0.8-0.6c0.4-0.1,0.6-0.1,1,0c0.4,0.1,0.6,0.2,0.7,0.5c0.2,0.2,0.2,0.6,0.2,1c-0.1,0.5-0.2,1.2-0.4,1.9
		c-0.1,0.7-0.1,1.6-0.2,2.3c0,0.7,0,1.3,0,1.8c0.1,0.5,0.2,0.7,0.5,0.7c0.1,0,0.4-0.2,0.6-0.7s0.5-1.1,0.7-1.7
		c0.2-0.6,0.5-1.3,0.6-1.9c0.2-0.6,0.4-1.1,0.4-1.4c0.1-0.4,0.2-0.5,0.5-0.6s0.4-0.2,0.6-0.1c0.1,0,0.4,0.1,0.5,0.2
		c0.1,0.1,0.1,0.4,0.1,0.6c-0.1,0.1-0.1,0.5-0.2,1c-0.1,0.5-0.2,1.1-0.5,1.7s-0.5,1.2-0.7,1.9c-0.2,0.6-0.6,1.2-1,1.8
		c-0.4,0.5-0.7,1-1.2,1.3c-0.5,0.4-0.8,0.5-1.4,0.4c-0.8-0.1-1.4-0.5-1.8-1.2c-0.2,0.7-0.5,1.3-1,2.1c-0.4,0.6-0.8,1.1-1.4,1.4
		c-0.6,0.2-1.1,0.4-1.6,0.4c-0.8-0.1-1.4-0.5-1.9-1.3c-0.5-0.7-0.8-1.6-1-2.7c-0.1-1.1-0.2-2.2,0-3.4c0.1-1.1,0.4-2.2,0.8-3.3
		C45.1,17.1,45.7,16.2,46.4,15.6L46.4,15.6z M46.8,25.9c0.2,0.5,0.5,0.7,0.8,0.7c0.4,0,0.7-0.2,1.1-0.7c0.4-0.5,0.6-1.1,0.8-1.9
		c0.2-0.7,0.5-1.6,0.6-2.4s0.1-1.7,0.1-2.5c0-0.5-0.1-1-0.4-1.3c-0.1-0.5-0.4-0.7-0.7-0.7c-0.5,0-0.8,0.2-1.2,0.7s-0.6,1.1-0.8,1.8
		s-0.4,1.4-0.5,2.3c-0.1,0.7-0.1,1.6-0.1,2.3C46.4,24.8,46.6,25.4,46.8,25.9z"/>
	<path d="M57.9,13.9c-0.4,0.1-0.8,0.4-1.2,0.6c-0.4,0.4-0.6,0.8-0.7,1.4c-0.1,0.6-0.1,1.3-0.1,1.9c0,0.7,0,1.4,0,2.2l0.1,2.2
		c0,0.7,0,1.2,0,1.8c0,0.5,0.1,0.7,0.4,0.8c0.4,0.1,0.6,0.2,1,0.1c0.4,0,0.7-0.2,1-0.5c0.4-0.2,0.5-0.5,0.6-1c0-0.5,0.1-0.8,0.2-1.3
		c0.1-0.5,0.2-1,0.4-1.4c0.1-0.5,0.2-0.8,0.5-1.2c0.1-0.4,0.2-0.6,0.5-0.6c0.1,0.1,0.1,0.5,0,1c0,0.5,0,1.1,0.1,1.6s0.4,1,0.6,1.4
		c0.4,0.4,0.8,0.5,1.7,0.4c0.5-0.1,1-0.4,1.4-1c0.5-0.6,1-1.2,1.3-1.9c0.4-0.7,0.7-1.4,1.1-2.2c0.4-0.7,0.5-1.3,0.6-1.7
		c0.1-0.2,0-0.5-0.1-0.6c-0.1-0.1-0.2-0.2-0.4-0.2c-0.2,0-0.4,0-0.5,0.1c-0.2,0.1-0.2,0.4-0.4,0.6c-0.1,0.4-0.2,0.8-0.5,1.3
		s-0.5,1.1-0.7,1.6s-0.5,0.8-0.8,1.2c-0.2,0.4-0.5,0.6-0.6,0.6c-0.1,0-0.2-0.1-0.2-0.6s-0.1-1-0.1-1.4c0-0.6,0-1.1,0.1-1.7
		c0.1-0.6,0.1-1,0.2-1.2c0.1-0.4,0.1-0.7-0.1-0.8c-0.2-0.1-0.5-0.2-0.8-0.2c-0.4,0-0.7,0.1-1.1,0.4c-0.4,0.2-0.7,0.5-0.8,0.8
		c-0.4,0.5-0.6,1.1-0.8,1.7s-0.6,1.3-0.7,2.2c0-0.4,0-0.7,0-1.1c0-0.5,0.1-1,0.2-1.4c0.1-0.5,0.1-1,0.2-1.6c0.1-0.5,0.1-1,0.2-1.4
		c0-0.5-0.1-0.7-0.4-0.8c-0.2-0.1-0.4-0.1-0.6-0.1C58.2,13.8,58,13.8,57.9,13.9z"/>
	<g>
		<path id="a" d="M74.8,2.3c0.4,0,0.7,0.1,1,0.4c0.4,0.2,0.4,0.6,0.4,1.1c-0.1,0.4-0.1,1-0.2,2.1c-0.1,1-0.2,2.2-0.4,3.4
			c-0.1,1.3-0.2,2.7-0.4,4c-0.1,1.2-0.1,2.5-0.1,3.7s0,2.1,0.1,2.8c0.1,0.7,0.2,1.1,0.5,1c0.2,0,0.5-0.4,0.7-0.8
			c0.2-0.5,0.5-1.1,0.7-1.8s0.5-1.3,0.6-1.9c0.2-0.6,0.4-1.1,0.4-1.4c0.1-0.2,0.2-0.5,0.4-0.6c0.1-0.1,0.4-0.1,0.5-0.1
			c0.1,0,0.4,0.1,0.5,0.2c0.1,0.1,0.1,0.4,0.1,0.7c-0.1,0.6-0.2,1.2-0.4,1.7c-0.2,1-0.5,1.8-0.8,2.7c-0.4,1-0.8,1.8-1.4,2.5
			c-0.6,0.7-1.3,1.2-2.2,1.3c-0.6,0.1-1.1-0.1-1.4-0.6s-0.6-1.1-0.7-1.9c-0.2,0.6-0.5,1.1-0.8,1.6s-0.8,0.8-1.3,1.2
			c-0.6,0.4-1.1,0.5-1.6,0.4c-0.7,0-1.4-0.5-1.8-1.1c-0.5-0.6-0.7-1.4-1-2.3c-0.1-1-0.2-1.9,0-2.9c0.1-1,0.5-1.9,0.8-2.9
			c0.5-0.8,1-1.6,1.7-2.2s1.6-0.8,2.5-0.7c0.5,0,1,0.2,1.4,0.7c0.1-1.7,0.2-3.3,0.4-4.7s0.2-2.5,0.2-3.3s0.2-1.2,0.5-1.6
			C73.9,2.6,74.3,2.5,74.8,2.3C74.7,2.3,74.8,2.3,74.8,2.3z M68.7,21.4c0.2,0.5,0.5,0.6,0.8,0.6s0.7-0.2,1-0.7
			c0.4-0.5,0.6-1,0.8-1.7s0.5-1.4,0.5-2.2c0.1-0.7,0.1-1.4,0.1-2.2c0-0.4-0.1-0.8-0.2-1.2s-0.4-0.6-0.7-0.6c-0.5,0-0.8,0.1-1.2,0.6
			c-0.4,0.4-0.6,1-0.8,1.6c-0.2,0.6-0.4,1.3-0.5,2.1c-0.1,0.7-0.1,1.4-0.1,2.1S68.6,20.9,68.7,21.4L68.7,21.4z"/>
	</g>
</g>
</svg>
